<?xml version="1.0" standalone="no"?><!DOCTYPE svg PUBLIC "-//W3C//DTD SVG 1.1//EN" "http://www.w3.org/Graphics/SVG/1.1/DTD/svg11.dtd"><svg t="1656486310066" class="icon" viewBox="0 0 1024 1024" version="1.1" xmlns="http://www.w3.org/2000/svg" p-id="21405" xmlns:xlink="http://www.w3.org/1999/xlink" width="200" height="200"><defs><style type="text/css">@font-face { font-family: feedback-iconfont; src: url("//at.alicdn.com/t/font_1031158_u69w8yhxdu.woff2?t=1630033759944") format("woff2"), url("//at.alicdn.com/t/font_1031158_u69w8yhxdu.woff?t=1630033759944") format("woff"), url("//at.alicdn.com/t/font_1031158_u69w8yhxdu.ttf?t=1630033759944") format("truetype"); }
</style></defs><path d="M720.3 312.14c-59.37 25.57-128.43 34.16-197.12 34.16-77 0-147.91-10-204.55-34.07a24.75 24.75 0 0 0-34.5 22.77v105.31h-31.88C170.5 440.31 104 506.82 104 588.56S170.5 736.8 252.25 736.8h31.88v86.74a24.87 24.87 0 0 0 13.26 22C357 877 436.25 889.7 523.18 889.7c77 0 154.4-10.79 218.16-44.17a25 25 0 0 0 13.41-22.08V334.93a24.73 24.73 0 0 0-34.45-22.79z m-468 362.68a86.26 86.26 0 1 1 0-172.52h31.88v172.52z" fill="#F4BD25" p-id="21406"></path><path d="M869.18 519.33a85 85 0 0 0-46.71-75.86 85 85 0 0 0-42.19-154.57 122.25 122.25 0 0 0-195.16-125.18 67.42 67.42 0 0 0-111.64 5.51 107.87 107.87 0 0 0-161 94 108.58 108.58 0 0 0 1.76 18.77 65.84 65.84 0 0 0-42.55 61.54c0 0.65 0.08 1.28 0.1 1.93-16.75 4.65-26 18.94-26 40.29 0 24.15 16.54 42.86 38.29 52.71V335a24.75 24.75 0 0 1 34.5-22.76c56.64 24.11 127.58 34.07 204.55 34.07q8.36 0 16.72-0.18c-0.13 1.52-0.21 3.06-0.21 4.62a51.47 51.47 0 0 0 48.13 51.34 87.73 87.73 0 0 0 111.8 123.42 40.05 40.05 0 0 0 55.18 27.67v109.46c35.34-1 45.89-44.42 38.49-68.41 32.03-4.65 75.94-40.43 75.94-74.9z" fill="#FFFFFF" p-id="21407"></path><path d="M661.7 136.72A121.93 121.93 0 0 1 780.28 288.9a85 85 0 0 1 42.19 154.57 85 85 0 0 1 46.71 75.86c0 34.47-43.91 70.25-75.94 74.9 7.4 24-3.15 67.39-38.49 68.41v160.81a25 25 0 0 1-13.41 22.08c-63.76 33.38-141.19 44.17-218.16 44.17-86.93 0-166.18-12.7-225.79-44.15a24.87 24.87 0 0 1-13.26-22V736.8h-31.88C170.5 736.8 104 670.3 104 588.56s66.5-148.25 148.25-148.25h31.88v-1.85c-21.75-9.85-38.29-28.56-38.29-52.71 0-21.35 9.2-35.64 26-40.29 0-0.65-0.1-1.28-0.1-1.93a65.84 65.84 0 0 1 42.5-61.53 107.47 107.47 0 0 1 106.22-126.75 107.38 107.38 0 0 1 53 14 67.42 67.42 0 0 1 111.64-5.51 121.79 121.79 0 0 1 76.58-27M252.25 674.82h31.88V502.3h-31.88a86.26 86.26 0 1 0 0 172.52m409.45-566.3a150.08 150.08 0 0 0-73.29 19.07 95 95 0 0 0-57.24-19.07 95.35 95.35 0 0 0-65.74 26.22 136.1 136.1 0 0 0-181.12 128.47v2.82a94.14 94.14 0 0 0-39.45 61.31 59.76 59.76 0 0 0-16.06 16.74c-7.42 11.53-11.19 25.55-11.19 41.67a78.87 78.87 0 0 0 5.42 28.78c-83.44 14-147.25 86.68-147.25 174C75.81 685.85 155 765 252.25 765h3.68v58.54a52.93 52.93 0 0 0 28.31 47c59.66 31.46 140.05 47.4 238.94 47.4 43.25 0 83.35-3.37 119.19-10 41.9-7.79 79.6-20.35 112-37.34a53 53 0 0 0 28.52-47.06V684.12a66.93 66.93 0 0 0 24.73-21.29 88.17 88.17 0 0 0 15-38.55 99.35 99.35 0 0 0 0.92-10 143.39 143.39 0 0 0 38.77-25.6c22.58-20.86 35-45.49 35-69.35a112.82 112.82 0 0 0-17.29-60.11 114.32 114.32 0 0 0-14.76-18.76A113.22 113.22 0 0 0 812 267.06c0.15-2.66 0.22-5.32 0.22-7.95A150.49 150.49 0 0 0 661.7 108.52zM252.25 646.63a58.07 58.07 0 0 1 0-116.14h3.68v116.14z" fill="#3B3E44" p-id="21408"></path></svg>