<?xml version="1.0" standalone="no"?><!DOCTYPE svg PUBLIC "-//W3C//DTD SVG 1.1//EN" "http://www.w3.org/Graphics/SVG/1.1/DTD/svg11.dtd"><svg t="1656486312963" class="icon" viewBox="0 0 1024 1024" version="1.1" xmlns="http://www.w3.org/2000/svg" p-id="21553" xmlns:xlink="http://www.w3.org/1999/xlink" width="200" height="200"><defs><style type="text/css">@font-face { font-family: feedback-iconfont; src: url("//at.alicdn.com/t/font_1031158_u69w8yhxdu.woff2?t=1630033759944") format("woff2"), url("//at.alicdn.com/t/font_1031158_u69w8yhxdu.woff?t=1630033759944") format("woff"), url("//at.alicdn.com/t/font_1031158_u69w8yhxdu.ttf?t=1630033759944") format("truetype"); }
</style></defs><path d="M329 329h441v445H329zM425 175h234v96H425zM424 774h234v134H424z" fill="#FBDA31" p-id="21554"></path><path d="M731 289.83V733H293V289.83h438m48-48H245V781h534V241.83z" fill="#333333" p-id="21555"></path><path d="M628.91 145v96.4H395.09V145h233.82m48-48H347.09v192.4h329.82V97zM628.91 781.6V879H395.09v-97.4h233.82m48-48H347.09V927h329.82V733.6zM474.97 373.61h48v151.82h-48z" fill="#333333" p-id="21556"></path><path d="M474.94 502.026l144.53-0.202 0.067 48-144.53 0.202z" fill="#333333" p-id="21557"></path></svg>