<?xml version="1.0" standalone="no"?><!DOCTYPE svg PUBLIC "-//W3C//DTD SVG 1.1//EN" "http://www.w3.org/Graphics/SVG/1.1/DTD/svg11.dtd"><svg t="1656055218700" class="icon" viewBox="0 0 1024 1024" version="1.1" xmlns="http://www.w3.org/2000/svg" p-id="5707" xmlns:xlink="http://www.w3.org/1999/xlink" width="200" height="200"><defs><style type="text/css">@font-face { font-family: feedback-iconfont; src: url("//at.alicdn.com/t/font_1031158_u69w8yhxdu.woff2?t=1630033759944") format("woff2"), url("//at.alicdn.com/t/font_1031158_u69w8yhxdu.woff?t=1630033759944") format("woff"), url("//at.alicdn.com/t/font_1031158_u69w8yhxdu.ttf?t=1630033759944") format("truetype"); }
</style></defs><path d="M292.6 628.8c10.9 0 19.8-8.9 19.8-19.8s-8.9-19.8-19.8-19.8-19.8 8.9-19.8 19.8 8.8 19.8 19.8 19.8zM385.6 805.9c-0.1 0-0.1 0 0 0h-45.4c-26.6 0-33.1-6.5-33.1-33.1V656h-0.1c-0.4-8.5-7.2-15.3-15.8-15.3-8.6 0-15.5 6.8-15.8 15.3h-0.1v116.9c0 44.3 20.6 65 65 65h45.4c8.8 0 15.9-7.1 15.9-15.9-0.1-8.9-7.2-16.1-16-16.1z" fill="#6B400D" p-id="5708"></path><path d="M752.5 240.9v-0.7l-10.4-0.9c-3.6-0.3-7.2-0.7-11.1-0.7h-51.6v-54.7c0-65.4-6.7-119.5-88.6-119.5h-142c-91.6 0-102.2 68.2-102.2 119.5v54.7H295c-62.8 0-103.4 47.4-103.4 120.7v446.9c0 67.6 35.7 112.3 103.4 112.3h41.5v16.8c0 14.2 9.9 24.1 24.1 24.1h49.5c14.2 0 24.1-9.9 24.1-24.1v-16.8H588v16.8c0 14.2 9.9 24.1 24.1 24.1h49.5c14.2 0 24.1-9.9 24.1-24.1v-16.8h41.5c67.6 0 103.4-44.6 103.4-112.3V359.3c0.1-63.8-30.3-109.3-78.1-118.4z m-357.7-58.3c0-58.3 11.8-70.1 70.1-70.1h96.2c49.7 0 61.1 10.3 66.5 31.9 2.2 9.5 3.3 58.8 3.5 94.2H394.8v-56z m387.7 623.5c0 40.8-14.4 64.1-55.2 64.1H295c-40.8 0-55.2-23.3-55.2-64.1V359.3c0-49.5 23-72.5 72.5-72.5h432.3c22 0 37.9 30.5 37.9 72.5v446.8z" fill="#6B400D" p-id="5709"></path><path d="M598.4 377.5H423.9c-38 0-69 30.9-69 69V682c0 38 30.9 69 69 69h174.5c38 0 69-30.9 69-69V446.4c0-38-31-68.9-69-68.9zM492.1 710h-68.2c-15.4 0-28-12.5-28-28V446.4c0-15.4 12.5-28 28-28h68.2V710z m134.3-28c0 15.4-12.5 28-28 28h-68.2V418.5h68.2c15.4 0 28 12.5 28 28V682z" fill="#6B400D" p-id="5710"></path><path d="M598.4 418.5h-68.2V710h68.2c15.4 0 28-12.5 28-28V446.4c0-15.4-12.6-27.9-28-27.9zM395.9 446.4V682c0 15.4 12.5 28 28 28h68.2V418.5h-68.2c-15.5 0-28 12.5-28 27.9z" fill="#FFD524" p-id="5711"></path></svg>