<?xml version="1.0" standalone="no"?><!DOCTYPE svg PUBLIC "-//W3C//DTD SVG 1.1//EN" "http://www.w3.org/Graphics/SVG/1.1/DTD/svg11.dtd"><svg t="1656486303197" class="icon" viewBox="0 0 1024 1024" version="1.1" xmlns="http://www.w3.org/2000/svg" p-id="21083" xmlns:xlink="http://www.w3.org/1999/xlink" width="200" height="200"><defs><style type="text/css">@font-face { font-family: feedback-iconfont; src: url("//at.alicdn.com/t/font_1031158_u69w8yhxdu.woff2?t=1630033759944") format("woff2"), url("//at.alicdn.com/t/font_1031158_u69w8yhxdu.woff?t=1630033759944") format("woff"), url("//at.alicdn.com/t/font_1031158_u69w8yhxdu.ttf?t=1630033759944") format("truetype"); }
</style></defs><path d="M351.66 667.12L236.82 664a27.38 27.38 0 0 1-26.63-28.11l7.24-267.57a27.39 27.39 0 0 1 28.12-26.63l114.84 3.11a29.4 29.4 0 0 0 30.19-28.59l0.71-26.48a29.39 29.39 0 0 0-28.59-30.18l-192.54-5.21a37.68 37.68 0 0 0-38.7 36.66l-11.3 417.46a37.69 37.69 0 0 0 36.66 38.7l192.54 5.21a29.39 29.39 0 0 0 30.18-28.59l0.72-26.48a29.4 29.4 0 0 0-28.6-30.18z" fill="#FFCE0C" p-id="21084"></path><path d="M350.17 769.06h-1.27l-192.54-5.21A54.37 54.37 0 0 1 103.49 708l11.3-417.46a54.4 54.4 0 0 1 55.82-52.87l192.54 5.21A46.12 46.12 0 0 1 408 290.19l-0.71 26.48a46.13 46.13 0 0 1-47.31 44.81l-114.88-3.11a10.71 10.71 0 0 0-11 10.41l-7.24 267.57a10.71 10.71 0 0 0 10.41 11l114.85 3.11a46.08 46.08 0 0 1 44.81 47.31l-0.72 26.47a46.13 46.13 0 0 1-46.04 44.82z m-181-498a21 21 0 0 0-21 20.44l-11.3 417.46a21 21 0 0 0 20.44 21.58l192.54 5.21a12.74 12.74 0 0 0 13.06-12.37l0.72-26.48a12.72 12.72 0 0 0-12.38-13.06l-114.84-3.11a44.06 44.06 0 0 1-42.85-45.23l7.24-267.57A44.08 44.08 0 0 1 246 325l114.84 3.11a12.71 12.71 0 0 0 13.06-12.37l0.72-26.48a12.74 12.74 0 0 0-12.37-13.06L169.71 271z" fill="#191007" p-id="21085"></path><path d="M221.9 447.29l166.11 4.5" fill="#FFCE0C" p-id="21086"></path><path d="M388 462.91h-0.31l-166.1-4.49a11.12 11.12 0 0 1 0.6-22.23l166.11 4.5a11.12 11.12 0 0 1-0.3 22.23z" fill="#191007" p-id="21087"></path><path d="M223.39 392.29l166.1 4.5" fill="#FFCE0C" p-id="21088"></path><path d="M389.5 407.91h-0.31l-166.1-4.5a11.11 11.11 0 0 1 0.6-22.22l166.11 4.49a11.12 11.12 0 0 1-0.3 22.24z" fill="#191007" p-id="21089"></path><path d="M220.41 502.29l166.11 4.5" fill="#FFCE0C" p-id="21090"></path><path d="M386.52 517.91h-0.3l-166.11-4.49a11.12 11.12 0 0 1 0.6-22.23l166.11 4.5a11.12 11.12 0 0 1-0.3 22.23z" fill="#191007" p-id="21091"></path><path d="M218.92 557.3l166.11 4.49" fill="#FFCE0C" p-id="21092"></path><path d="M385 572.91h-0.3l-166.11-4.5a11.12 11.12 0 0 1 0.6-22.23l166.11 4.5a11.12 11.12 0 0 1-0.3 22.23z" fill="#191007" p-id="21093"></path><path d="M217.43 612.3l166.11 4.49" fill="#FFCE0C" p-id="21094"></path><path d="M383.54 627.91h-0.3l-166.11-4.5a11.12 11.12 0 0 1 0.6-22.23l166.11 4.5a11.12 11.12 0 0 1-0.3 22.23z" fill="#191007" p-id="21095"></path><path d="M567.93 236.28L787.9 634.33" fill="#FFFFFF" p-id="21096"></path><path d="M787.91 651a16.68 16.68 0 0 1-14.61-8.61l-220-398a16.68 16.68 0 0 1 29.19-16.14l220 398A16.68 16.68 0 0 1 787.91 651z" fill="#01040A" p-id="21097"></path><path d="M827.09 710.94m-76.76 0a76.76 76.76 0 1 0 153.52 0 76.76 76.76 0 1 0-153.52 0Z" fill="#FFFFFF" p-id="21098"></path><path d="M827.21 804.42a93.46 93.46 0 1 1 82-138 93.51 93.51 0 0 1-82 138zM827 650.83a60.11 60.11 0 1 0 52.91 31.49 59.68 59.68 0 0 0-35.71-29 60.44 60.44 0 0 0-17.2-2.49z" fill="#01040A" p-id="21099"></path><path d="M811.85 242.89L571.39 627.53" fill="#FFCE0C" p-id="21100"></path><path d="M571.37 644.21a16.68 16.68 0 0 1-14.12-25.52l240.46-384.64A16.68 16.68 0 1 1 826 251.73L585.53 636.37a16.67 16.67 0 0 1-14.16 7.84z" fill="#191007" p-id="21101"></path><path d="M527.39 702.83m-76.76 0a76.76 76.76 0 1 0 153.52 0 76.76 76.76 0 1 0-153.52 0Z" fill="#FFCE0C" p-id="21102"></path><path d="M527.21 796.3a93.74 93.74 0 1 1 21.91-2.6 94.11 94.11 0 0 1-21.91 2.6z m0.29-153.58a61 61 0 0 0-14.09 1.67 59.73 59.73 0 1 0 14.09-1.67z" fill="#191007" p-id="21103"></path></svg>