<?xml version="1.0" standalone="no"?><!DOCTYPE svg PUBLIC "-//W3C//DTD SVG 1.1//EN" "http://www.w3.org/Graphics/SVG/1.1/DTD/svg11.dtd"><svg t="1656055220992" class="icon" viewBox="0 0 1024 1024" version="1.1" xmlns="http://www.w3.org/2000/svg" p-id="5849" xmlns:xlink="http://www.w3.org/1999/xlink" width="200" height="200"><defs><style type="text/css">@font-face { font-family: feedback-iconfont; src: url("//at.alicdn.com/t/font_1031158_u69w8yhxdu.woff2?t=1630033759944") format("woff2"), url("//at.alicdn.com/t/font_1031158_u69w8yhxdu.woff?t=1630033759944") format("woff"), url("//at.alicdn.com/t/font_1031158_u69w8yhxdu.ttf?t=1630033759944") format("truetype"); }
</style></defs><path d="M856 472H688v-72a80 80 0 0 0-80-80H424a80 80 0 0 0-80 80v72h-64a80 80 0 0 1-80-80V176a80 80 0 0 1 80-80h576a80 80 0 0 1 80 80v216a80 80 0 0 1-80 80z" fill="#FFCD33" p-id="5850"></path><path d="M945.992 601.84a80.512 80.512 0 0 1 6.008 30.528v239.376A80.128 80.128 0 0 1 872 952H760a32 32 0 0 1-31.952-31.512l-0.048-0.048a32.072 32.072 0 0 0-32-32.144H328a32.072 32.072 0 0 0-32 32.144l-0.048 0.048A32 32 0 0 1 264 952H152a80.128 80.128 0 0 1-80-80.256V632.368a80.4 80.4 0 0 1 6.008-30.528A95.848 95.848 0 0 1 112 425.44V152A80 80 0 0 1 192 72h640a80 80 0 0 1 80 80v273.44a95.848 95.848 0 0 1 33.992 176.4zM136 855.696a32.048 32.048 0 0 0 32 32.096h65.72A80.104 80.104 0 0 1 312 824h400a80.104 80.104 0 0 1 78.28 63.792H856a32.048 32.048 0 0 0 32-32.096V648.44a32.072 32.072 0 0 0-32-32.152H168a32.072 32.072 0 0 0-32 32.152v207.256zM848 168a32 32 0 0 0-32-32H208a32 32 0 0 0-32 32v256h144v-56a80 80 0 0 1 80-80h240a80 80 0 0 1 80 80v56h128V168zM384 424h272v-40a32 32 0 0 0-32-32H416a32 32 0 0 0-32 32v40z m512 64H128a32 32 0 0 0 0 64h768a32 32 0 0 0 0-64z" p-id="5851"></path></svg>