<?xml version="1.0" standalone="no"?><!DOCTYPE svg PUBLIC "-//W3C//DTD SVG 1.1//EN" "http://www.w3.org/Graphics/SVG/1.1/DTD/svg11.dtd"><svg t="1656486297013" class="icon" viewBox="0 0 1024 1024" version="1.1" xmlns="http://www.w3.org/2000/svg" p-id="20782" xmlns:xlink="http://www.w3.org/1999/xlink" width="200" height="200"><defs><style type="text/css">@font-face { font-family: feedback-iconfont; src: url("//at.alicdn.com/t/font_1031158_u69w8yhxdu.woff2?t=1630033759944") format("woff2"), url("//at.alicdn.com/t/font_1031158_u69w8yhxdu.woff?t=1630033759944") format("woff"), url("//at.alicdn.com/t/font_1031158_u69w8yhxdu.ttf?t=1630033759944") format("truetype"); }
</style></defs><path d="M928.416 1024H95.584C40.96 1024 0 983.04 0 928.416V737.28c0-54.624 40.96-95.584 95.584-95.584h27.296V95.584C122.88 40.96 163.84 0 218.464 0h587.072c54.624 0 95.584 40.96 95.584 95.584v546.112h27.296c54.624 0 95.584 40.96 95.584 95.584v191.136C1024 983.04 983.04 1024 928.416 1024z m-122.88-962.56H218.464c-20.48 0-34.144 13.664-34.144 34.144V798.72h648.544V95.584c0-13.664-13.664-34.144-27.328-34.144z m150.208 675.84c0-20.48-13.664-34.144-34.144-34.144h-27.296v95.584c13.632 0 27.296 13.664 27.296 34.144 0 20.48-13.664 34.112-34.144 34.112H122.88c-20.48 0-34.144-13.632-34.144-34.112 0-13.664 13.664-27.328 27.328-34.144v-95.584h-27.328c-20.48 0-34.112 13.664-34.112 34.144v191.136c0 20.48 13.632 34.144 34.112 34.144h839.68c20.48 0 34.144-13.664 34.144-34.144V737.28h-6.816z" p-id="20783"></path><path d="M678.496 378.88c18.144-12.032 36.32-6.016 48.416 6.048 12.128 12.064 12.128 36.16 0 48.224l-199.776 168.832-6.08 6.016h-24.192c-6.08 0-6.08-6.016-6.08-6.016l-193.696-174.848c-12.128-12.064-12.128-30.144 0-48.224 12.096-12.064 30.272-12.064 48.416 0l127.136 126.592V222.144c0-18.08 18.176-30.144 36.32-30.144 18.176 0 30.272 12.064 30.272 30.144v283.36l139.264-126.592z" p-id="20784"></path></svg>