<?xml version="1.0" standalone="no"?><!DOCTYPE svg PUBLIC "-//W3C//DTD SVG 1.1//EN" "http://www.w3.org/Graphics/SVG/1.1/DTD/svg11.dtd">
<svg t="1656038977312" class="icon" viewBox="0 0 1024 1024" version="1.1"
    xmlns="http://www.w3.org/2000/svg" p-id="1922"
    xmlns:xlink="http://www.w3.org/1999/xlink" width="200" height="200">
    <defs>
        <style type="text/css">@font-face { font-family: feedback-iconfont; src: url("//at.alicdn.com/t/font_1031158_u69w8yhxdu.woff2?t=1630033759944") format("woff2"), url("//at.alicdn.com/t/font_1031158_u69w8yhxdu.woff?t=1630033759944") format("woff"), url("//at.alicdn.com/t/font_1031158_u69w8yhxdu.ttf?t=1630033759944") format("truetype"); }
        </style>
    </defs>
    <path d="M944.763354 391.424854l-4.40124-31.984459-90.237187-41.004903c-11.151991-27.980261-25.927509-54.30379-44.109614-78.567403l11.834536-98.634438-25.046443-20.273742c-31.638581-25.479301-65.402569-45.481867-103.368252-61.191664l-29.889751-12.195763L579.001997 105.214297c-29.907147-4.366448-60.192917-4.706185-90.243327-1.045819l-79.091336-59.468416-30.552853 11.513218C341.18359 70.945819 305.969577 90.762143 274.450722 115.078968l-25.505907 19.691481 9.564843 98.714256c-9.137101 11.576663-17.678638 24.069185-25.432229 37.181831-7.549953 12.656251-14.437827 26.178219-20.538779 40.353057l-91.269703 38.960337-4.951779 31.990598c-6.313799 39.807634-6.816243 80.227206-1.421372 120.31932l4.464685 31.854499 90.057085 40.894386c11.022031 27.949562 25.830295 54.321186 44.176129 78.679967l-11.993149 98.880031 25.200962 19.769252c15.09172 12.31242 31.729655 23.905456 49.650817 34.605146 18.686594 10.94733 36.304857 19.738553 53.541427 26.751271l29.747511 12.424984 81.044828-57.762565c29.921473 4.26821 60.111053 4.659113 89.983407 1.049912l79.401398 59.544141 30.097482-11.604292c37.513382-14.45113 72.777537-34.219359 105.035218-58.95267l25.374924-19.835767-9.593496-98.454336c9.296737-11.805884 17.868973-24.347524 25.559119-37.361933 7.706519-12.999059 14.547321-26.487258 20.410865-40.222073l91.609441-39.029922 4.725628-31.922037C949.624059 471.986681 950.09478 431.615205 944.763354 391.424854zM878.44902 497.006518l-83.134419 35.422767-4.994758 13.299911c-5.557576 14.767332-12.544711 29.29521-20.805862 43.2265-8.212032 13.913894-17.619286 27.051099-27.965935 39.050388l-9.246595 10.768251 8.756431 89.874937c-24.810059 18.531052-51.840692 33.689287-80.497359 45.143153l-72.222905-54.168714-13.9405 2.260483c-31.697933 5.143137-63.897286 4.78191-95.675036-1.113357l-13.848403-2.571568-73.615625 52.467979c-13.243629-5.611811-26.765597-12.500709-41.005926-20.837584-13.522991-8.071839-26.244734-16.803711-38.248116-26.291806l10.863419-89.574085-8.993838-10.973936c-20.659529-25.168216-36.383652-53.179177-46.739511-83.262332l-4.652973-13.500479-82.387405-37.405935c-3.701299-30.632671-3.321652-61.584614 1.162476-92.255147l82.811054-35.33681 5.030573-13.090133c5.984295-15.519462 13.035898-30.129204 21.059642-43.553958 8.370645-14.159488 17.729803-27.230178 27.79095-38.821167l9.343809-10.769274-8.725732-90.052992c24.487717-18.395976 51.582819-33.604352 80.415494-45.206598l72.257697 54.330396 14.021342-2.325975c31.777751-5.290493 63.993476-4.880147 95.658663 1.096984l13.963013 2.651386 73.451896-52.563146c28.822442 12.3247 54.835909 27.721365 79.218226 46.870494l-10.763135 89.76749 8.911974 10.926864c20.48045 25.105794 36.237319 53.197596 46.855144 83.47211l4.683672 13.370519 82.290191 37.391608C883.217626 435.532421 882.871749 466.547809 878.44902 497.006518z" p-id="1923"></path>
    <path d="M715.810872 406.390707l-40.744983-18.507516c-4.943592-12.280698-11.432377-23.843034-19.368116-34.524305l5.337565-44.558845-11.973706-9.698896c-14.285355-11.513218-29.589922-20.580734-46.860261-27.756157l-14.284331-5.807263-36.405141 26.025747c-13.124925-1.853208-26.436092-2.033309-39.625486-0.448208l-35.727713-26.862811-14.623046 5.496178c-17.135262 6.650467-33.086559 15.618723-47.435359 26.687826l-12.199856 9.416464 4.340865 44.597731c-3.994987 5.099135-7.741311 10.584056-11.143805 16.355503-3.308349 5.54325-6.350638 11.471262-9.064446 17.71957l-41.260729 17.600867-2.356674 15.288195c-2.851954 18.034748-3.072989 36.356023-0.638543 54.541197l2.133593 15.239076 40.680515 18.475793c4.910846 12.248975 11.416004 23.826662 19.417235 34.556027l-5.41636 44.689828 12.051477 9.487072c7.119141 5.78168 14.716166 11.021008 22.499433 15.658631 7.700379 4.508687 15.866363 8.718569 24.231891 12.099572l14.238282 5.986341 36.647665-26.126031c13.107529 1.804089 26.337855 1.953492 39.511899 0.466628l35.923164 26.925233 14.363126-5.572926c17.039072-6.568602 33.023114-15.520485 47.597041-26.722618l12.150738-9.464559-4.338818-44.500517c4.074805-5.230118 7.820106-10.731412 11.190877-16.437367 3.38612-5.705955 6.39771-11.618619 9.001001-17.637706l41.422412-17.652032 2.243087-15.270798c2.820232-17.937534 3.042289-36.226063 0.62217-54.508451L715.810872 406.390707zM684.947957 468.176912l-37.136805 15.823384-2.49789 6.650467c-2.49789 6.650467-5.613858 13.081946-9.222035 19.164478-3.591805 6.066159-7.722892 11.880585-12.394285 17.297968l-4.623297 5.383614 3.919263 40.145325c-10.538007 7.770987-21.986757 14.19428-34.154891 19.135826l-32.267914-24.189935-6.954389 1.137916c-14.037714 2.294252-28.305673 2.127454-42.413995-0.48914l-6.92369-1.278109-32.876782 23.413246c-6.084579-2.619664-11.916401-5.695722-17.36039-8.891508-5.510504-3.275603-10.945283-6.958482-16.257266-11.095709l4.868891-39.996946-4.504594-5.495154c-9.15859-11.166317-16.130376-23.580045-20.715811-36.903491l-2.334161-6.742565-36.796044-16.715707c-1.484817-12.995989-1.334391-26.111704 0.488117-39.123043l36.991496-15.788591 2.515287-6.53688c2.577708-6.699586 5.661953-13.163811 9.333576-19.311835 3.576455-6.033413 7.642051-11.830443 12.314467-17.198707l4.687766-5.384637-3.921309-40.24254c10.473539-7.754614 21.970384-14.20963 34.122145-19.167548l32.269961 24.270776 7.018857-1.155313c14.101159-2.359744 28.337395-2.143826 42.38125 0.473791l6.973832 1.326205 32.827663-23.477714c12.201903 5.302773 23.239284 11.853979 33.583886 19.891026l-4.802376 40.093137 4.455475 5.463432c9.076726 11.102872 16.048511 23.549346 20.764929 36.984333l2.333138 6.677073 36.764322 16.71673C686.889169 442.131723 686.738743 455.263811 684.947957 468.176912z" p-id="1924"></path>
</svg>