<?xml version="1.0" standalone="no"?><!DOCTYPE svg PUBLIC "-//W3C//DTD SVG 1.1//EN" "http://www.w3.org/Graphics/SVG/1.1/DTD/svg11.dtd"><svg t="1656485912961" class="icon" viewBox="0 0 1024 1024" version="1.1" xmlns="http://www.w3.org/2000/svg" p-id="5477" xmlns:xlink="http://www.w3.org/1999/xlink" width="200" height="200"><defs><style type="text/css">@font-face { font-family: feedback-iconfont; src: url("//at.alicdn.com/t/font_1031158_u69w8yhxdu.woff2?t=1630033759944") format("woff2"), url("//at.alicdn.com/t/font_1031158_u69w8yhxdu.woff?t=1630033759944") format("woff"), url("//at.alicdn.com/t/font_1031158_u69w8yhxdu.ttf?t=1630033759944") format("truetype"); }
</style></defs><path d="M0 0h1024v1024H0z" fill="#FFFFFF" p-id="5478"></path><path d="M0 0h1024v1024H0z" fill="#FFFFFF" p-id="5479"></path><path d="M944 352a16 16 0 0 1 15.744 13.12l0.256 2.88v546.368c0 23.712-18.08 43.2-41.248 45.44l-4.384 0.192H144a16 16 0 0 1-2.88-31.744L144 928h770.368c6.72 0 12.256-4.8 13.44-11.2l0.192-2.432V368a16 16 0 0 1 16-16z" fill="#FFF3B2" p-id="5480"></path><path d="M64 629.376V864a32 32 0 0 0 32 32h768a32 32 0 0 0 32-32V264.416a16 16 0 0 0-27.648-10.976l-313.6 333.856a16 16 0 0 1-23.328 0l-102.336-108.96a16 16 0 0 0-23.36 0l-191.744 204.16a16 16 0 0 1-20.48 2.4l-104.704-68.864a16 16 0 0 0-24.8 13.344z" fill="#FFD345" p-id="5481"></path><path d="M683.584 112h219.232a8 8 0 0 1 5.472 13.824l-320.192 300.544c-20.544 19.264-53.408 20.48-75.52 3.52l-4.16-3.52-86.88-81.536-178.752 167.744c-17.28 16.192-43.744 19.968-65.28 9.76l-4.256-2.24-80.896-46.912a24.672 24.672 0 0 1-8.064-35.2 28.416 28.416 0 0 1 37.76-8.64l80.896 46.944 179.328-168.32c20.864-18.976 53.728-19.776 75.552-2.496l3.52 3.04 86.912 81.568 200-187.744a8 8 0 0 0-0.064-11.712l-70.048-64.736a8 8 0 0 1 5.44-13.888z" fill="#FFF3B2" p-id="5482"></path><path d="M667.552 96h219.232a8 8 0 0 1 5.472 13.824l-320.192 300.544c-20.544 19.264-53.408 20.48-75.52 3.52l-4.16-3.52-86.88-81.536-178.752 167.744c-17.28 16.192-43.744 19.968-65.28 9.76l-4.256-2.24-80.896-46.912a24.672 24.672 0 0 1-8.064-35.2 28.416 28.416 0 0 1 37.76-8.64l80.896 46.944 179.328-168.32c20.864-18.976 53.728-19.776 75.552-2.496l3.52 3.04 86.912 81.568 200-187.744a8 8 0 0 0-0.064-11.712l-70.048-64.736a8 8 0 0 1 5.44-13.888z" fill="#FFD345" p-id="5483"></path></svg>